<svg width="48" height="48" viewBox="0 0 48 48" fill="none" xmlns="http://www.w3.org/2000/svg">
<g clip-path="url(#clip0_56_480)">
<path d="M48 25.9777V0H0V48H48V33.9955C47.8931 33.9955 48 25.9777 48 25.9777Z" fill="#006FCF"/>
<path d="M42.1203 23.3052H45.755V14.8597H41.7996V16.0357L41.0512 14.8597H37.6303V16.3564L36.9889 14.8597H30.6815C30.4677 14.8597 30.2539 14.9666 30.0401 14.9666C29.8263 14.9666 29.7194 15.0735 29.5056 15.1805C29.2918 15.2874 29.1849 15.2874 28.971 15.3943V14.8597H10.9042L10.3697 16.2495L9.83519 14.8597H5.55902V16.3564L4.91759 14.8597H1.49666L0 18.4945V23.3052H2.4588L2.88641 22.1292H3.74165L4.16926 23.3052H22.9844V22.2361L23.7327 23.3052H28.971V22.6638C29.078 22.7707 29.2918 22.7707 29.3987 22.8776C29.5056 22.9845 29.7194 22.9845 29.8263 23.0914C30.0401 23.1983 30.2539 23.1983 30.4677 23.1983H34.3163L34.7439 22.0223H35.5991L36.0267 23.1983H41.265V22.1292L42.1203 23.3052ZM48 33.9956V26.0847H18.6013L17.853 27.1537L17.1047 26.0847H8.55234V34.5301H17.1047L17.853 33.4611L18.6013 34.5301H23.9465V32.7127H23.7327C24.4811 32.7127 25.1225 32.6058 25.657 32.392V34.637H29.5056V33.568L30.2539 34.637H46.1826C46.8241 34.4232 47.4655 34.3163 48 33.9956Z" fill="white"/>
<path d="M46.1826 31.9643H43.2962V33.1403H46.0757C47.2517 33.1403 48 32.3919 48 31.3229C48 30.2538 47.3586 29.7193 46.2895 29.7193H45.0067C44.686 29.7193 44.4722 29.5055 44.4722 29.1848C44.4722 28.8641 44.686 28.6503 45.0067 28.6503H47.4655L48 27.4743H45.1136C43.9376 27.4743 43.1893 28.2227 43.1893 29.1848C43.1893 30.2538 43.8307 30.7884 44.8998 30.7884H46.1826C46.5033 30.7884 46.7171 31.0022 46.7171 31.3229C46.8241 31.7505 46.6102 31.9643 46.1826 31.9643ZM40.9443 31.9643H38.0579V33.1403H40.8374C42.0134 33.1403 42.7617 32.3919 42.7617 31.3229C42.7617 30.2538 42.1203 29.7193 41.0512 29.7193H39.7684C39.4477 29.7193 39.2339 29.5055 39.2339 29.1848C39.2339 28.8641 39.4477 28.6503 39.7684 28.6503H42.2272L42.7617 27.4743H39.8753C38.6993 27.4743 37.951 28.2227 37.951 29.1848C37.951 30.2538 38.5924 30.7884 39.6615 30.7884H40.9443C41.265 30.7884 41.4788 31.0022 41.4788 31.3229C41.5857 31.7505 41.265 31.9643 40.9443 31.9643ZM37.2027 28.5434V27.3674H32.7127V33.0334H37.2027V31.8574H33.9955V30.6815H37.0958V29.5055H33.9955V28.4365H37.2027V28.5434ZM29.9332 28.5434C30.4677 28.5434 30.6815 28.8641 30.6815 29.1848C30.6815 29.5055 30.4677 29.8262 29.9332 29.8262H28.3296V28.4365L29.9332 28.5434ZM28.3296 31.0022H28.971L30.6815 33.0334H32.2851L30.3608 30.8953C31.3229 30.6815 31.8575 30.04 31.8575 29.1848C31.8575 28.1158 31.1091 27.3674 29.9332 27.3674H26.9399V33.0334H28.2227L28.3296 31.0022ZM24.9087 29.2917C24.9087 29.7193 24.6949 30.04 24.1604 30.04H22.4499V28.5434H24.0535C24.588 28.5434 24.9087 28.8641 24.9087 29.2917ZM21.167 27.3674V33.0334H22.4499V31.1091H24.1604C25.3363 31.1091 26.1915 30.3607 26.1915 29.1848C26.1915 28.1158 25.4432 27.2605 24.2673 27.2605L21.167 27.3674ZM19.2428 33.0334H20.8463L18.6013 30.1469L20.8463 27.3674H19.2428L17.853 29.1848L16.4633 27.3674H14.8597L17.1047 30.1469L14.8597 32.9265H16.4633L17.853 31.1091L19.2428 33.0334ZM14.4321 28.5434V27.3674H9.94209V33.0334H14.4321V31.8574H11.2249V30.6815H14.3252V29.5055H11.2249V28.4365H14.4321V28.5434ZM40.4098 18.4944L42.6548 21.9153H44.2584V16.2494H42.9755V19.991L42.6548 19.4565L40.6236 16.2494H38.9131V21.9153H40.196V18.0668L40.4098 18.4944ZM34.8508 18.3875L35.2784 17.2115L35.706 18.3875L36.2405 19.6703H34.3163L34.8508 18.3875ZM37.0958 21.9153H38.4855L36.0267 16.2494H34.3163L31.8575 21.9153H33.2472L33.7817 20.7394H36.5612L37.0958 21.9153ZM31.1091 21.9153L31.6437 20.7394H31.3229C30.3608 20.7394 29.8263 20.0979 29.8263 19.1358V19.0289C29.8263 18.0668 30.3608 17.4253 31.3229 17.4253H32.7127V16.2494H31.216C29.5056 16.2494 28.5434 17.4253 28.5434 19.0289V19.1358C28.5434 20.8463 29.5056 21.9153 31.1091 21.9153ZM26.2984 21.9153H27.5813V16.3563H26.2984V21.9153ZM23.5189 17.4253C24.0535 17.4253 24.2673 17.746 24.2673 18.0668C24.2673 18.3875 24.0535 18.7082 23.5189 18.7082H21.9154V17.3184L23.5189 17.4253ZM21.9154 19.8841H22.5568L24.2673 21.9153H25.8708L23.9465 19.7772C24.9087 19.5634 25.4432 18.922 25.4432 18.0668C25.4432 16.9977 24.6949 16.2494 23.5189 16.2494H20.5256V21.9153H21.8085L21.9154 19.8841ZM19.5635 17.4253V16.2494H15.0735V21.9153H19.5635V20.7394H16.3563V19.5634H19.4566V18.3875H16.3563V17.3184H19.5635V17.4253ZM9.83519 21.9153H11.0111L12.6147 17.3184V21.9153H13.8976V16.2494H11.7595L10.4766 20.0979L9.19376 16.2494H7.05568V21.9153H8.33853V17.3184L9.83519 21.9153ZM2.88641 18.3875L3.31403 17.2115L3.74165 18.3875L4.27617 19.6703H2.35189L2.88641 18.3875ZM5.1314 21.9153H6.52116L4.06236 16.2494H2.4588L0 21.9153H1.38976L1.92428 20.7394H4.70379L5.1314 21.9153Z" fill="#006FCF"/>
</g>
<defs>
<clipPath id="clip0_56_480">
<rect width="48" height="48" fill="white"/>
</clipPath>
</defs>
</svg>
