<svg width="48" height="48" viewBox="0 0 48 48" fill="none" xmlns="http://www.w3.org/2000/svg">
<path d="M44.7802 10.296C44.3452 9.28125 43.6199 8.121 42.3149 7.251C41.7352 6.816 41.0099 6.381 40.2847 6.09075C39.7049 5.946 39.1244 5.8005 38.3992 5.8005H38.2544C37.3844 5.8005 35.7892 5.94525 34.9192 7.251C34.4842 7.686 34.3394 8.556 34.4842 9.28125C34.6289 9.861 35.0639 10.4415 35.6444 10.5863C35.6444 10.5863 35.7892 10.731 36.0794 10.731C36.0794 10.8757 35.9347 11.166 35.9347 11.166C35.4997 11.601 34.7744 12.3263 32.5994 12.3263H32.4547C31.2944 12.1815 30.4244 11.8912 29.1194 10.5863C28.3942 9.71625 27.9592 8.121 27.9592 5.65575C27.9592 4.35075 27.8144 3.33525 27.5242 2.46525C27.3794 1.8855 26.7989 1.305 26.3639 1.01475C25.9289 0.7245 25.6387 0.57975 24.9134 0.2895L22.4474 0C21.5774 0 20.9969 0.14475 20.7074 0.57975H19.8374C19.4024 0.57975 18.8227 0.7245 18.3869 0.7245C17.5169 0.86925 16.9364 1.30425 16.3567 1.73925C16.2119 1.884 15.6314 2.4645 15.4867 3.04425C15.4867 3.47925 15.6314 3.91425 15.6314 4.059L15.7762 4.20375C16.0664 3.9135 16.6462 3.76875 17.3714 3.76875C18.3862 3.76875 19.8367 4.20375 20.1269 4.929C20.8522 6.08925 20.5619 6.95925 20.5619 7.974C20.1269 10.7295 19.1114 12.0345 16.9364 12.324C16.5014 12.4687 16.0664 12.4688 15.7762 12.4688C14.1809 12.4688 13.0207 12.0337 12.4409 11.0182V10.728C12.4409 10.728 12.5857 10.728 12.7312 10.5833C13.3109 10.293 13.7459 9.858 13.8914 9.27825C14.0362 8.553 13.8914 7.82775 13.4564 7.248C12.5864 6.378 11.4262 5.7975 10.1212 5.7975C9.25116 5.7975 8.67066 5.94225 8.09091 6.08775C6.35091 6.52275 4.75566 7.97325 3.59541 10.293C2.72541 12.033 2.14491 14.0632 2.00016 16.383C1.85541 18.7027 1.85541 20.5882 2.00016 22.3283C2.14491 25.2285 2.72541 26.9685 3.45066 28.8533C4.17591 30.738 5.04591 32.4787 6.06066 34.0732C6.35091 34.5083 6.49566 34.9432 6.78591 35.2335L6.93066 35.0887C7.07541 34.944 7.22091 34.7985 7.36566 34.509C7.94541 34.074 8.96091 32.6235 9.25116 32.1885C9.54141 31.7535 9.97641 31.0282 10.2659 30.303L10.4107 30.0127L10.7009 30.1575C10.9912 30.4478 11.1359 30.8827 11.1359 31.3177C11.1359 31.7528 10.9912 32.1877 10.7009 33.0578C10.4107 34.0725 9.83091 35.2327 9.25041 36.393C9.39516 36.5378 9.39516 36.828 9.25041 36.828C8.81541 37.5532 8.81541 37.8428 8.81541 38.133H8.96016C9.10491 38.133 9.68541 37.9883 10.1204 37.5532C10.5554 37.263 11.7157 36.2482 13.1654 34.218C14.3257 32.7675 15.0509 31.173 15.9209 29.433L16.0657 29.1427L16.3559 29.2875C16.5007 29.4322 16.6462 29.4323 16.7909 29.5778C16.9357 29.868 16.9357 30.303 16.9357 30.738C16.7909 31.8983 16.0657 33.4935 15.6307 34.653C14.7607 36.6833 13.1654 38.8582 12.0052 40.4535C12.0052 40.5983 11.7149 40.8885 11.5702 40.8885C11.7149 41.0333 11.8604 41.1787 12.1499 41.3235L12.5849 41.7585C14.1802 43.0635 15.6299 44.079 17.5154 45.0938C18.9659 45.9637 21.8654 47.4142 23.8964 47.994C25.9267 47.559 28.8269 45.9637 30.2774 45.0938C32.1629 44.079 33.6127 43.0635 35.2079 41.7585L35.6429 41.3235C35.9332 41.1787 36.0779 40.8885 36.2227 40.8885C36.3674 40.5983 36.3674 40.4535 36.3674 40.3088L36.2227 40.164C35.0624 38.7135 33.4672 36.3937 32.5972 34.3635C32.1622 33.2033 31.4369 31.608 31.2922 30.4485C31.1474 30.0135 31.2922 29.5785 31.4369 29.2882L31.7272 28.998C31.8719 28.8533 32.1622 28.8533 32.1622 28.8533L32.3069 29.1435C33.1769 30.8835 34.0469 32.4787 35.0624 33.9285C36.5129 35.9587 37.6724 36.9735 38.1074 37.2638C38.5424 37.6987 38.9774 37.8435 39.2677 37.8435H39.4124C39.5572 37.6987 39.4124 37.4085 38.9774 36.6833C38.8327 36.5385 38.8327 36.393 38.8327 36.2483C38.2529 35.088 37.6724 33.9277 37.3822 32.913C37.0919 32.043 36.9472 31.4625 36.9472 31.173C36.9472 30.738 37.0919 30.303 37.3822 30.0127L37.6724 29.868L37.8172 30.1582C38.1074 30.8835 38.6872 31.7535 38.9774 32.1885C39.2677 32.6235 40.4279 33.9285 40.7174 34.3635C41.0077 34.6538 41.1524 34.7985 41.1524 34.9432L41.2972 35.088C41.4419 34.9432 41.5874 34.653 41.8769 34.0732L42.0217 33.9285C42.8917 32.478 43.7617 30.5933 44.4869 28.7085C45.2122 26.9685 45.6472 25.083 45.9374 22.1835C46.0822 20.4435 46.2277 18.558 45.9374 16.2382C46.0822 14.0632 45.5024 11.8883 44.7772 10.293L44.7802 10.296Z" fill="url(#paint0_radial_56_485)"/>
<defs>
<radialGradient id="paint0_radial_56_485" cx="0" cy="0" r="1" gradientUnits="userSpaceOnUse" gradientTransform="translate(3.16853 8.37395) scale(48.9807 48.9807)">
<stop stop-color="#20C4F4"/>
<stop offset="0.305" stop-color="#09B4F0"/>
<stop offset="0.5" stop-color="#00AEEF"/>
<stop offset="0.8" stop-color="#0092C8"/>
<stop offset="1" stop-color="#006E98"/>
</radialGradient>
</defs>
</svg>
